<svg version="1.1" id="Layer_1" xmlns="http://www.w3.org/2000/svg" xmlns:xlink="http://www.w3.org/1999/xlink" x="0px" y="0px"
	 width="100%" viewBox="0 0 736 736" enable-background="new 0 0 736 736" xml:space="preserve">
<path fill="#B0D6E5" opacity="1.000000" stroke="none" 
	d="
M226.986694,581.372070 
	C214.956268,581.268188 215.011948,581.277710 219.862640,570.989807 
	C235.866470,537.046936 250.066635,502.451141 258.145569,465.616730 
	C260.006378,457.132721 260.632751,448.520752 261.560272,439.933899 
	C261.734680,438.319305 261.706848,436.597260 259.927155,434.998993 
	C237.810684,451.272552 216.222397,448.274139 194.619186,432.788300 
	C197.658188,429.383301 202.019180,430.073273 205.307220,426.928986 
	C181.639740,420.923889 164.235748,409.149536 162.100281,382.391541 
	C167.295944,381.263458 171.837662,384.618011 177.605225,383.030243 
	C156.314697,362.990448 164.097214,343.789459 177.762848,324.466949 
	C180.433990,325.578857 180.537857,327.620148 181.254974,329.208466 
	C197.734467,365.708710 225.681442,386.011932 265.819580,388.963318 
	C291.188477,390.828735 313.039276,381.188202 333.609528,367.695435 
	C354.918488,353.718140 370.286652,334.541626 381.909393,312.117706 
	C382.797028,310.405212 383.171692,308.266113 385.641754,307.121704 
	C395.430847,316.287781 406.775391,323.490295 418.874237,329.451141 
	C435.512451,337.648438 452.449829,345.063324 471.527954,345.069061 
	C475.283966,345.070190 475.454956,347.344177 475.159698,350.060974 
	C473.575043,364.641022 471.044312,379.035400 466.596771,393.045197 
	C464.426575,399.881348 464.427460,399.853363 470.971375,403.464630 
	C502.012878,420.595123 507.990692,453.000488 497.049316,479.886993 
	C489.445953,498.570984 472.568542,505.381927 454.341858,505.100220 
	C448.974579,505.017303 447.372162,501.501709 450.414551,497.030182 
	C454.863464,490.491608 458.710968,483.669739 459.577148,475.680145 
	C460.457794,467.556732 457.328857,461.062195 450.656616,456.276337 
	C443.252045,450.965210 434.663879,448.737091 425.917999,447.576447 
	C401.026245,444.273224 377.102386,447.527039 354.725647,459.505524 
	C334.156586,470.516357 318.290405,486.816193 304.449036,505.173431 
	C292.721375,520.727295 281.658295,536.780640 270.053192,552.429138 
	C263.892639,560.736084 256.983704,568.430908 248.393967,574.408447 
	C242.096649,578.790771 235.291687,581.623047 226.986694,581.372070 
z"/>
<path fill="#B0D6E5" opacity="1.000000" stroke="none" 
	d="
M570.340820,284.160858 
	C562.547119,304.024963 538.560791,311.635559 518.213257,304.323700 
	C502.477844,298.669189 490.210114,288.516998 480.199982,275.382263 
	C478.597504,273.279541 476.890839,271.231934 474.037689,273.010406 
	C471.343353,274.689941 471.873383,277.247803 473.037537,279.663788 
	C473.903900,281.461731 474.842834,283.233368 475.872833,284.942352 
	C481.645538,294.520386 489.270599,302.316071 498.595551,308.476257 
	C499.940033,309.364441 501.691345,309.841370 502.396027,312.191620 
	C499.213043,316.389526 494.962860,318.969299 489.355652,318.146393 
	C484.280792,317.401581 480.736267,313.327057 475.917664,310.902771 
	C474.781311,315.041260 475.237518,318.969788 475.585297,322.831970 
	C476.387817,331.744415 475.209534,332.940277 466.543854,331.759247 
	C447.874237,329.214813 431.124847,321.611084 415.023102,312.294556 
	C407.356415,307.858521 400.084137,302.887146 393.884155,296.477875 
	C391.921387,294.448822 390.678986,292.388641 391.804993,289.365845 
	C402.355103,261.043457 407.885864,231.390610 414.879639,202.123428 
	C417.046082,193.057388 419.711212,184.126648 422.880127,175.350830 
	C424.490601,170.890869 426.950775,166.976761 430.161316,163.516205 
	C436.433838,156.755234 445.394592,154.603195 452.891235,158.045486 
	C459.820648,161.227325 464.228912,170.415817 462.973969,179.218719 
	C461.894165,186.792908 459.111237,193.661011 454.273865,199.649368 
	C453.155670,201.033569 452.100311,202.468491 450.650177,204.356323 
	C453.957214,205.134155 456.522186,204.655258 459.086761,204.316177 
	C474.333130,202.300476 488.565674,204.675919 501.438934,213.650909 
	C511.605133,220.738602 522.106445,227.128952 535.053894,227.739700 
	C545.921204,228.252350 556.668518,227.540863 567.327087,225.344360 
	C573.361511,224.100800 573.517456,224.389801 574.393433,230.684158 
	C576.237610,243.935776 577.040588,257.151886 574.361389,270.404663 
	C573.433838,274.992981 572.368713,279.509338 570.340820,284.160858 
M498.560181,234.194260 
	C495.164246,227.467880 488.985687,225.532242 484.154968,229.681366 
	C481.011169,232.381577 479.941223,237.465134 482.022522,240.991043 
	C484.167847,244.625412 487.457611,246.303879 491.690186,245.454468 
	C496.235596,244.542282 498.695282,240.723907 498.560181,234.194260 
z"/>
<path fill="#B0D6E5" opacity="1.000000" stroke="none" 
	d="
M499.286987,407.708008 
	C494.639099,403.036896 489.457489,399.723877 483.963959,396.878082 
	C481.640747,395.674591 480.392273,394.327667 481.246765,391.370026 
	C484.299347,380.804169 485.685303,369.888885 487.477600,359.072113 
	C488.031189,355.730774 489.229126,355.044189 492.396210,355.539093 
	C504.299774,357.399261 514.086731,363.262512 521.995544,371.924011 
	C534.525574,385.646576 542.340820,401.520660 541.323792,420.704742 
	C540.573914,434.848083 534.546082,446.574738 524.554749,456.425842 
	C522.931030,458.026855 521.359924,458.572388 519.233276,457.346466 
	C517.209900,456.180084 516.048035,454.955597 516.182312,452.268036 
	C517.038635,435.132904 511.953796,420.148102 499.286987,407.708008 
z"/>
<path fill="#B0D6E5" opacity="1.000000" stroke="none" 
	d="
M323.513611,502.523987 
	C341.580170,482.296753 368.010223,471.069977 378.001770,472.744507 
	C374.705872,475.292511 371.899445,477.466064 369.088898,479.634277 
	C358.183807,488.046936 350.432159,498.957916 344.107178,511.025116 
	C338.325897,522.055054 333.700165,533.749817 325.216827,543.219604 
	C316.132294,553.360474 304.508911,559.169861 291.814636,563.225098 
	C291.238770,563.409058 290.552856,563.248718 288.943909,563.248718 
	C296.647003,540.492676 307.245361,520.134216 323.513611,502.523987 
z"/>
<path fill="#B0D6E5" opacity="1.000000" stroke="none" 
	d="
M491.628418,191.797760 
	C483.627563,194.562363 476.007538,197.290680 467.801575,197.690094 
	C466.751129,185.307083 477.478699,165.708023 487.624084,160.907990 
	C495.950745,156.968445 504.198608,159.013611 508.111023,165.987976 
	C512.451050,173.724594 510.104401,181.910690 501.855072,186.875732 
	C498.738495,188.751511 495.281769,190.062149 491.628418,191.797760 
z"/>
</svg>